<svg width="153" height="156" viewBox="0 0 153 156" fill="none" xmlns="http://www.w3.org/2000/svg">
    <g filter="url(#filter0_d_0_1134)">
        <g filter="url(#filter1_d_0_1134)">
            <ellipse cx="76.5" cy="74" rx="72.5" ry="74" fill="#5F37A8" />
        </g>
        <ellipse cx="76.5" cy="70.7192" rx="72.5" ry="70.7192" fill="#834EE3" />
        <ellipse cx="76.5" cy="70.7192" rx="72.5" ry="70.7192" fill="url(#paint0_linear_0_1134)" />
        <ellipse cx="76.5" cy="72.1774" rx="55.6566" ry="55.4089" fill="#BABFD4" />
        <ellipse cx="76.5" cy="75.0937" rx="55.6566" ry="52.4926" fill="url(#paint1_linear_0_1134)" />
        <path fill-rule="evenodd" clip-rule="evenodd"
            d="M103.198 45.8772C100.807 44.6633 97.7125 45.0965 94.4837 47.0963C91.9304 48.6779 89.5865 51.0801 88.3669 53.3654C86.0378 57.7293 86.9511 61.5772 87.5389 63.2018C86.7352 65.7547 85.6257 67.8761 84.2147 69.5636C83.0773 68.1383 82.4428 66.3427 82.4428 64.4645V64.373L85.4321 61.2875C85.7515 60.9577 86.5784 59.6582 85.432 58.4748C84.6796 57.6983 83.4595 57.6983 82.7071 58.4748L82.4426 58.7479V58.1268C82.4426 57.0286 81.5799 56.1381 80.5158 56.1381C79.4518 56.1381 78.5891 57.0286 78.5891 58.1268V58.7479L78.3246 58.4748C77.5722 57.6983 76.3521 57.6983 75.5997 58.4748C74.8472 59.2514 74.8472 60.5107 75.5997 61.2874L78.5892 64.3727V64.4643C78.5892 67.306 79.559 70.0225 81.2976 72.1661C78.1754 74.1988 74.1306 74.8873 69.1858 74.2176C67.4019 73.9758 65.6007 73.9457 63.8351 74.1223C61.6208 71.8876 58.586 70.6196 55.3894 70.6196H55.2994L52.2672 67.637C51.5041 66.8864 50.2665 66.8864 49.5033 67.637C48.7402 68.3877 48.7402 69.605 49.5033 70.3558L49.7716 70.6197H49.1614C48.0821 70.6197 47.2071 71.4804 47.2071 72.5421C47.2071 73.6037 48.0821 74.4641 49.1614 74.4641H49.7717L49.5033 74.7282C48.7402 75.4788 48.7402 76.6961 49.5033 77.4469C49.8849 77.8223 50.3851 78.01 50.8852 78.01C51.3854 78.01 51.8856 77.8223 52.2673 77.4469L55.2995 74.4642H55.3895C56.5728 74.4642 57.7225 74.7254 58.7647 75.2108C58.9054 75.1726 59.0465 75.1355 59.1879 75.0997C59.1447 75.1139 59.1015 75.1282 59.0584 75.1427C55.7516 76.2535 52.7689 78.1823 50.4332 80.7202C46.4055 85.0962 44.9305 90.5538 46.1675 96.5033C47.0785 100.884 49.1552 103.988 49.2431 104.118C49.6156 104.669 50.2307 104.985 50.8734 104.985C51.0304 104.985 51.1892 104.966 51.3462 104.928C52.1469 104.729 52.7396 104.051 52.8321 103.228C52.8424 103.138 53.9108 94.1377 59.4286 89.0454C60.1314 88.3969 62.7882 86.3301 67.4729 86.9646C69.1264 87.1886 70.7259 87.3221 72.2704 87.3655C73.1174 89.0118 73.3786 90.9148 72.9821 92.7587L72.9629 92.848L69.3451 95.2005C68.4345 95.7928 68.1705 97.0198 68.7558 97.9412C69.341 98.863 70.5535 99.1297 71.4643 98.5377L71.7843 98.3295L71.6541 98.9346C71.4241 100.005 72.0949 101.061 73.1525 101.294C73.293 101.325 73.433 101.34 73.5711 101.34C74.473 101.34 75.2847 100.706 75.4845 99.7782L75.6146 99.1731L75.8204 99.4971C76.1948 100.087 76.8262 100.409 77.471 100.409C77.8337 100.409 78.2008 100.307 78.5288 100.094C79.4392 99.5013 79.7032 98.2743 79.1179 97.3529L76.7932 93.6917L76.8124 93.6023C77.2721 91.4649 77.142 89.2738 76.4707 87.2498C81.8029 86.7849 86.3647 85.087 90.0962 82.1686C90.5372 81.8237 90.9657 81.4626 91.3814 81.0857C93.5073 82.917 96.2411 83.9422 99.1051 83.9422H99.1948L102.216 86.9247C102.596 87.3003 103.095 87.4879 103.593 87.4879C104.091 87.4879 104.59 87.3002 104.97 86.9247C105.73 86.1741 105.73 84.9568 104.97 84.2061L104.703 83.942H105.311C106.386 83.9422 107.258 83.0814 107.258 82.0198C107.258 80.9582 106.386 80.0975 105.31 80.0975H104.702L104.97 79.8336C105.73 79.083 105.73 77.8657 104.97 77.1149C104.209 76.3641 102.976 76.3643 102.216 77.1149L99.1947 80.0974H99.105C97.2283 80.0974 95.435 79.4394 94.0261 78.2608C96.1765 75.5606 97.8611 72.2953 99.0601 68.4962C102.156 67.3957 104.35 65.586 105.588 63.1096C107.781 58.7223 108.556 48.5975 103.198 45.8772Z"
            fill="#3B4262" />
    </g>
    <defs>
        <filter id="filter0_d_0_1134" x="0" y="0" width="153" height="156" filterUnits="userSpaceOnUse"
            color-interpolation-filters="sRGB">
            <feFlood flood-opacity="0" result="BackgroundImageFix" />
            <feColorMatrix in="SourceAlpha" type="matrix" values="0 0 0 0 0 0 0 0 0 0 0 0 0 0 0 0 0 0 127 0"
                result="hardAlpha" />
            <feOffset dy="4" />
            <feGaussianBlur stdDeviation="2" />
            <feComposite in2="hardAlpha" operator="out" />
            <feColorMatrix type="matrix" values="0 0 0 0 0 0 0 0 0 0 0 0 0 0 0 0 0 0 0.25 0" />
            <feBlend mode="normal" in2="BackgroundImageFix" result="effect1_dropShadow_0_1134" />
            <feBlend mode="normal" in="SourceGraphic" in2="effect1_dropShadow_0_1134" result="shape" />
        </filter>
        <filter id="filter1_d_0_1134" x="1" y="0" width="151" height="154" filterUnits="userSpaceOnUse"
            color-interpolation-filters="sRGB">
            <feFlood flood-opacity="0" result="BackgroundImageFix" />
            <feColorMatrix in="SourceAlpha" type="matrix" values="0 0 0 0 0 0 0 0 0 0 0 0 0 0 0 0 0 0 127 0"
                result="hardAlpha" />
            <feOffset dy="3" />
            <feGaussianBlur stdDeviation="1.5" />
            <feColorMatrix type="matrix" values="0 0 0 0 0 0 0 0 0 0 0 0 0 0 0 0 0 0 0.196706 0" />
            <feBlend mode="normal" in2="BackgroundImageFix" result="effect1_dropShadow_0_1134" />
            <feBlend mode="normal" in="SourceGraphic" in2="effect1_dropShadow_0_1134" result="shape" />
        </filter>
        <linearGradient id="paint0_linear_0_1134" x1="4" y1="0" x2="4" y2="141.438" gradientUnits="userSpaceOnUse">
            <stop stop-color="white" stop-opacity="0.0966455" />
            <stop offset="1" stop-color="white" stop-opacity="0.01" />
        </linearGradient>
        <linearGradient id="paint1_linear_0_1134" x1="131.234" y1="127.586" x2="131.234" y2="24.3412"
            gradientUnits="userSpaceOnUse">
            <stop stop-color="#F3F3F3" />
            <stop offset="1" stop-color="#DADADA" />
        </linearGradient>
    </defs>
</svg>